<mxfile host="app.diagrams.net" modified="2021-02-10T03:59:21.134Z" agent="5.0 (Windows NT 10.0; Win64; x64) AppleWebKit/537.36 (KHTML, like Gecko) Chrome/88.0.4324.146 Safari/537.36" etag="ZvyiY3MACmhIiUg7WmtY" version="14.3.0" type="github">
  <diagram id="giiNnV0ZEgZHaVHPHxLj" name="Page-1">
    <mxGraphModel dx="1422" dy="800" grid="1" gridSize="10" guides="1" tooltips="1" connect="1" arrows="1" fold="1" page="1" pageScale="1" pageWidth="850" pageHeight="1100" math="0" shadow="0">
      <root>
        <mxCell id="0" />
        <mxCell id="1" parent="0" />
        <mxCell id="nKY9XVkqRSqY-fJyK-zI-196" value="" style="shape=cylinder3;whiteSpace=wrap;html=1;boundedLbl=1;backgroundOutline=1;size=18;" vertex="1" parent="1">
          <mxGeometry x="770" y="130" width="870" height="930" as="geometry" />
        </mxCell>
        <mxCell id="nKY9XVkqRSqY-fJyK-zI-3" value="Org Admin Portal" style="swimlane;html=1;startSize=20;horizontal=1;containerType=tree;" vertex="1" parent="1">
          <mxGeometry x="80" y="360" width="910" height="670" as="geometry">
            <mxRectangle x="80" y="360" width="130" height="20" as="alternateBounds" />
          </mxGeometry>
        </mxCell>
        <mxCell id="nKY9XVkqRSqY-fJyK-zI-4" value="" style="edgeStyle=elbowEdgeStyle;elbow=vertical;startArrow=none;endArrow=none;rounded=0;entryX=0.5;entryY=0;entryDx=0;entryDy=0;entryPerimeter=0;exitX=0;exitY=0.5;exitDx=0;exitDy=0;exitPerimeter=0;" edge="1" parent="nKY9XVkqRSqY-fJyK-zI-3" source="nKY9XVkqRSqY-fJyK-zI-5" target="nKY9XVkqRSqY-fJyK-zI-6">
          <mxGeometry relative="1" as="geometry">
            <Array as="points">
              <mxPoint x="100" y="70" />
            </Array>
          </mxGeometry>
        </mxCell>
        <object label="Org Portal Home" activities="manage suborgs, users, learning tracks, surveys" id="nKY9XVkqRSqY-fJyK-zI-5">
          <mxCell style="shape=note;whiteSpace=wrap;html=1;backgroundOutline=1;darkOpacity=0.05;fontFamily=Helvetica;fontSize=12;fontColor=#000000;align=center;strokeColor=#000000;fillColor=#ffffff;" vertex="1" parent="nKY9XVkqRSqY-fJyK-zI-3">
            <mxGeometry x="140" y="30" width="80" height="80" as="geometry" />
          </mxCell>
        </object>
        <mxCell id="nKY9XVkqRSqY-fJyK-zI-6" value="survey management" style="shape=note;whiteSpace=wrap;html=1;backgroundOutline=1;darkOpacity=0.05;fontFamily=Helvetica;fontSize=12;fontColor=#000000;align=center;strokeColor=#000000;fillColor=#ffffff;" vertex="1" parent="nKY9XVkqRSqY-fJyK-zI-3">
          <mxGeometry x="10" y="130" width="80" height="80" as="geometry" />
        </mxCell>
        <mxCell id="nKY9XVkqRSqY-fJyK-zI-256" value="" style="edgeStyle=elbowEdgeStyle;elbow=vertical;startArrow=none;endArrow=none;rounded=0;entryX=0.5;entryY=0;entryDx=0;entryDy=0;entryPerimeter=0;" edge="1" parent="nKY9XVkqRSqY-fJyK-zI-3" target="nKY9XVkqRSqY-fJyK-zI-257">
          <mxGeometry relative="1" as="geometry">
            <mxPoint x="180" y="110" as="sourcePoint" />
            <Array as="points" />
          </mxGeometry>
        </mxCell>
        <mxCell id="nKY9XVkqRSqY-fJyK-zI-257" value="learning management" style="shape=note;whiteSpace=wrap;html=1;backgroundOutline=1;darkOpacity=0.05;fontFamily=Helvetica;fontSize=12;fontColor=#000000;align=center;strokeColor=#000000;fillColor=#ffffff;" vertex="1" parent="nKY9XVkqRSqY-fJyK-zI-3">
          <mxGeometry x="140" y="130" width="80" height="80" as="geometry" />
        </mxCell>
        <mxCell id="nKY9XVkqRSqY-fJyK-zI-15" value="Users" style="shape=table;startSize=30;container=1;collapsible=1;childLayout=tableLayout;fixedRows=1;rowLines=0;fontStyle=1;align=center;resizeLast=1;" vertex="1" parent="1">
          <mxGeometry x="1090" y="270" width="180" height="190" as="geometry" />
        </mxCell>
        <mxCell id="nKY9XVkqRSqY-fJyK-zI-16" value="" style="shape=partialRectangle;collapsible=0;dropTarget=0;pointerEvents=0;fillColor=none;top=0;left=0;bottom=1;right=0;points=[[0,0.5],[1,0.5]];portConstraint=eastwest;" vertex="1" parent="nKY9XVkqRSqY-fJyK-zI-15">
          <mxGeometry y="30" width="180" height="30" as="geometry" />
        </mxCell>
        <mxCell id="nKY9XVkqRSqY-fJyK-zI-17" value="PK" style="shape=partialRectangle;connectable=0;fillColor=none;top=0;left=0;bottom=0;right=0;fontStyle=1;overflow=hidden;" vertex="1" parent="nKY9XVkqRSqY-fJyK-zI-16">
          <mxGeometry width="30" height="30" as="geometry" />
        </mxCell>
        <mxCell id="nKY9XVkqRSqY-fJyK-zI-18" value="UserID" style="shape=partialRectangle;connectable=0;fillColor=none;top=0;left=0;bottom=0;right=0;align=left;spacingLeft=6;fontStyle=5;overflow=hidden;" vertex="1" parent="nKY9XVkqRSqY-fJyK-zI-16">
          <mxGeometry x="30" width="150" height="30" as="geometry" />
        </mxCell>
        <mxCell id="nKY9XVkqRSqY-fJyK-zI-19" value="" style="shape=partialRectangle;collapsible=0;dropTarget=0;pointerEvents=0;fillColor=none;top=0;left=0;bottom=0;right=0;points=[[0,0.5],[1,0.5]];portConstraint=eastwest;" vertex="1" parent="nKY9XVkqRSqY-fJyK-zI-15">
          <mxGeometry y="60" width="180" height="30" as="geometry" />
        </mxCell>
        <mxCell id="nKY9XVkqRSqY-fJyK-zI-20" value="" style="shape=partialRectangle;connectable=0;fillColor=none;top=0;left=0;bottom=0;right=0;editable=1;overflow=hidden;" vertex="1" parent="nKY9XVkqRSqY-fJyK-zI-19">
          <mxGeometry width="30" height="30" as="geometry" />
        </mxCell>
        <mxCell id="nKY9XVkqRSqY-fJyK-zI-21" value="NameGiven" style="shape=partialRectangle;connectable=0;fillColor=none;top=0;left=0;bottom=0;right=0;align=left;spacingLeft=6;overflow=hidden;" vertex="1" parent="nKY9XVkqRSqY-fJyK-zI-19">
          <mxGeometry x="30" width="150" height="30" as="geometry" />
        </mxCell>
        <mxCell id="nKY9XVkqRSqY-fJyK-zI-22" value="" style="shape=partialRectangle;collapsible=0;dropTarget=0;pointerEvents=0;fillColor=none;top=0;left=0;bottom=0;right=0;points=[[0,0.5],[1,0.5]];portConstraint=eastwest;" vertex="1" parent="nKY9XVkqRSqY-fJyK-zI-15">
          <mxGeometry y="90" width="180" height="30" as="geometry" />
        </mxCell>
        <mxCell id="nKY9XVkqRSqY-fJyK-zI-23" value="" style="shape=partialRectangle;connectable=0;fillColor=none;top=0;left=0;bottom=0;right=0;editable=1;overflow=hidden;" vertex="1" parent="nKY9XVkqRSqY-fJyK-zI-22">
          <mxGeometry width="30" height="30" as="geometry" />
        </mxCell>
        <mxCell id="nKY9XVkqRSqY-fJyK-zI-24" value="NameFamily" style="shape=partialRectangle;connectable=0;fillColor=none;top=0;left=0;bottom=0;right=0;align=left;spacingLeft=6;overflow=hidden;" vertex="1" parent="nKY9XVkqRSqY-fJyK-zI-22">
          <mxGeometry x="30" width="150" height="30" as="geometry" />
        </mxCell>
        <mxCell id="nKY9XVkqRSqY-fJyK-zI-25" value="" style="shape=partialRectangle;collapsible=0;dropTarget=0;pointerEvents=0;fillColor=none;top=0;left=0;bottom=0;right=0;points=[[0,0.5],[1,0.5]];portConstraint=eastwest;" vertex="1" parent="nKY9XVkqRSqY-fJyK-zI-15">
          <mxGeometry y="120" width="180" height="30" as="geometry" />
        </mxCell>
        <mxCell id="nKY9XVkqRSqY-fJyK-zI-26" value="" style="shape=partialRectangle;connectable=0;fillColor=none;top=0;left=0;bottom=0;right=0;editable=1;overflow=hidden;" vertex="1" parent="nKY9XVkqRSqY-fJyK-zI-25">
          <mxGeometry width="30" height="30" as="geometry" />
        </mxCell>
        <mxCell id="nKY9XVkqRSqY-fJyK-zI-27" value="email" style="shape=partialRectangle;connectable=0;fillColor=none;top=0;left=0;bottom=0;right=0;align=left;spacingLeft=6;overflow=hidden;" vertex="1" parent="nKY9XVkqRSqY-fJyK-zI-25">
          <mxGeometry x="30" width="150" height="30" as="geometry" />
        </mxCell>
        <mxCell id="nKY9XVkqRSqY-fJyK-zI-95" style="shape=partialRectangle;collapsible=0;dropTarget=0;pointerEvents=0;fillColor=none;top=0;left=0;bottom=0;right=0;points=[[0,0.5],[1,0.5]];portConstraint=eastwest;" vertex="1" parent="nKY9XVkqRSqY-fJyK-zI-15">
          <mxGeometry y="150" width="180" height="30" as="geometry" />
        </mxCell>
        <mxCell id="nKY9XVkqRSqY-fJyK-zI-96" style="shape=partialRectangle;connectable=0;fillColor=none;top=0;left=0;bottom=0;right=0;editable=1;overflow=hidden;" vertex="1" parent="nKY9XVkqRSqY-fJyK-zI-95">
          <mxGeometry width="30" height="30" as="geometry" />
        </mxCell>
        <object label="role" roles="admin, OrgMember, SuborgMember, user" id="nKY9XVkqRSqY-fJyK-zI-97">
          <mxCell style="shape=partialRectangle;connectable=0;fillColor=none;top=0;left=0;bottom=0;right=0;align=left;spacingLeft=6;overflow=hidden;" vertex="1" parent="nKY9XVkqRSqY-fJyK-zI-95">
            <mxGeometry x="30" width="150" height="30" as="geometry" />
          </mxCell>
        </object>
        <mxCell id="nKY9XVkqRSqY-fJyK-zI-28" value="Orgs" style="shape=table;startSize=30;container=1;collapsible=1;childLayout=tableLayout;fixedRows=1;rowLines=0;fontStyle=1;align=center;resizeLast=1;" vertex="1" parent="1">
          <mxGeometry x="790" y="190" width="180" height="100" as="geometry" />
        </mxCell>
        <mxCell id="nKY9XVkqRSqY-fJyK-zI-29" value="" style="shape=partialRectangle;collapsible=0;dropTarget=0;pointerEvents=0;fillColor=none;top=0;left=0;bottom=1;right=0;points=[[0,0.5],[1,0.5]];portConstraint=eastwest;" vertex="1" parent="nKY9XVkqRSqY-fJyK-zI-28">
          <mxGeometry y="30" width="180" height="30" as="geometry" />
        </mxCell>
        <mxCell id="nKY9XVkqRSqY-fJyK-zI-30" value="PK" style="shape=partialRectangle;connectable=0;fillColor=none;top=0;left=0;bottom=0;right=0;fontStyle=1;overflow=hidden;" vertex="1" parent="nKY9XVkqRSqY-fJyK-zI-29">
          <mxGeometry width="30" height="30" as="geometry" />
        </mxCell>
        <mxCell id="nKY9XVkqRSqY-fJyK-zI-31" value="OrgID" style="shape=partialRectangle;connectable=0;fillColor=none;top=0;left=0;bottom=0;right=0;align=left;spacingLeft=6;fontStyle=5;overflow=hidden;" vertex="1" parent="nKY9XVkqRSqY-fJyK-zI-29">
          <mxGeometry x="30" width="150" height="30" as="geometry" />
        </mxCell>
        <mxCell id="nKY9XVkqRSqY-fJyK-zI-32" value="" style="shape=partialRectangle;collapsible=0;dropTarget=0;pointerEvents=0;fillColor=none;top=0;left=0;bottom=0;right=0;points=[[0,0.5],[1,0.5]];portConstraint=eastwest;" vertex="1" parent="nKY9XVkqRSqY-fJyK-zI-28">
          <mxGeometry y="60" width="180" height="30" as="geometry" />
        </mxCell>
        <mxCell id="nKY9XVkqRSqY-fJyK-zI-33" value="" style="shape=partialRectangle;connectable=0;fillColor=none;top=0;left=0;bottom=0;right=0;editable=1;overflow=hidden;" vertex="1" parent="nKY9XVkqRSqY-fJyK-zI-32">
          <mxGeometry width="30" height="30" as="geometry" />
        </mxCell>
        <mxCell id="nKY9XVkqRSqY-fJyK-zI-34" value="OrgName" style="shape=partialRectangle;connectable=0;fillColor=none;top=0;left=0;bottom=0;right=0;align=left;spacingLeft=6;overflow=hidden;" vertex="1" parent="nKY9XVkqRSqY-fJyK-zI-32">
          <mxGeometry x="30" width="150" height="30" as="geometry" />
        </mxCell>
        <mxCell id="nKY9XVkqRSqY-fJyK-zI-41" value="UserSuborg" style="shape=table;startSize=30;container=1;collapsible=1;childLayout=tableLayout;fixedRows=1;rowLines=0;fontStyle=1;align=center;resizeLast=1;dashed=1;" vertex="1" parent="1">
          <mxGeometry x="870" y="300" width="180" height="160" as="geometry" />
        </mxCell>
        <mxCell id="nKY9XVkqRSqY-fJyK-zI-42" value="" style="shape=partialRectangle;collapsible=0;dropTarget=0;pointerEvents=0;fillColor=none;top=0;left=0;bottom=1;right=0;points=[[0,0.5],[1,0.5]];portConstraint=eastwest;" vertex="1" parent="nKY9XVkqRSqY-fJyK-zI-41">
          <mxGeometry y="30" width="180" height="30" as="geometry" />
        </mxCell>
        <mxCell id="nKY9XVkqRSqY-fJyK-zI-43" value="PK" style="shape=partialRectangle;connectable=0;fillColor=none;top=0;left=0;bottom=0;right=0;fontStyle=1;overflow=hidden;" vertex="1" parent="nKY9XVkqRSqY-fJyK-zI-42">
          <mxGeometry width="30" height="30" as="geometry" />
        </mxCell>
        <mxCell id="nKY9XVkqRSqY-fJyK-zI-44" value="SuborgID" style="shape=partialRectangle;connectable=0;fillColor=none;top=0;left=0;bottom=0;right=0;align=left;spacingLeft=6;fontStyle=5;overflow=hidden;" vertex="1" parent="nKY9XVkqRSqY-fJyK-zI-42">
          <mxGeometry x="30" width="150" height="30" as="geometry" />
        </mxCell>
        <mxCell id="nKY9XVkqRSqY-fJyK-zI-45" value="" style="shape=partialRectangle;collapsible=0;dropTarget=0;pointerEvents=0;fillColor=none;top=0;left=0;bottom=0;right=0;points=[[0,0.5],[1,0.5]];portConstraint=eastwest;" vertex="1" parent="nKY9XVkqRSqY-fJyK-zI-41">
          <mxGeometry y="60" width="180" height="30" as="geometry" />
        </mxCell>
        <mxCell id="nKY9XVkqRSqY-fJyK-zI-46" value="FK1" style="shape=partialRectangle;connectable=0;fillColor=none;top=0;left=0;bottom=0;right=0;editable=1;overflow=hidden;fontStyle=1" vertex="1" parent="nKY9XVkqRSqY-fJyK-zI-45">
          <mxGeometry width="30" height="30" as="geometry" />
        </mxCell>
        <mxCell id="nKY9XVkqRSqY-fJyK-zI-47" value="OrgID" style="shape=partialRectangle;connectable=0;fillColor=none;top=0;left=0;bottom=0;right=0;align=left;spacingLeft=6;overflow=hidden;fontStyle=1" vertex="1" parent="nKY9XVkqRSqY-fJyK-zI-45">
          <mxGeometry x="30" width="150" height="30" as="geometry" />
        </mxCell>
        <mxCell id="nKY9XVkqRSqY-fJyK-zI-48" value="" style="shape=partialRectangle;collapsible=0;dropTarget=0;pointerEvents=0;fillColor=none;top=0;left=0;bottom=0;right=0;points=[[0,0.5],[1,0.5]];portConstraint=eastwest;" vertex="1" parent="nKY9XVkqRSqY-fJyK-zI-41">
          <mxGeometry y="90" width="180" height="30" as="geometry" />
        </mxCell>
        <mxCell id="nKY9XVkqRSqY-fJyK-zI-49" value="FK2" style="shape=partialRectangle;connectable=0;fillColor=none;top=0;left=0;bottom=0;right=0;editable=1;overflow=hidden;fontStyle=1" vertex="1" parent="nKY9XVkqRSqY-fJyK-zI-48">
          <mxGeometry width="30" height="30" as="geometry" />
        </mxCell>
        <mxCell id="nKY9XVkqRSqY-fJyK-zI-50" value="UserID" style="shape=partialRectangle;connectable=0;fillColor=none;top=0;left=0;bottom=0;right=0;align=left;spacingLeft=6;overflow=hidden;fontStyle=1" vertex="1" parent="nKY9XVkqRSqY-fJyK-zI-48">
          <mxGeometry x="30" width="150" height="30" as="geometry" />
        </mxCell>
        <mxCell id="nKY9XVkqRSqY-fJyK-zI-51" value="" style="shape=partialRectangle;collapsible=0;dropTarget=0;pointerEvents=0;fillColor=none;top=0;left=0;bottom=0;right=0;points=[[0,0.5],[1,0.5]];portConstraint=eastwest;" vertex="1" parent="nKY9XVkqRSqY-fJyK-zI-41">
          <mxGeometry y="120" width="180" height="30" as="geometry" />
        </mxCell>
        <mxCell id="nKY9XVkqRSqY-fJyK-zI-52" value="" style="shape=partialRectangle;connectable=0;fillColor=none;top=0;left=0;bottom=0;right=0;editable=1;overflow=hidden;" vertex="1" parent="nKY9XVkqRSqY-fJyK-zI-51">
          <mxGeometry width="30" height="30" as="geometry" />
        </mxCell>
        <mxCell id="nKY9XVkqRSqY-fJyK-zI-53" value="SuborgName" style="shape=partialRectangle;connectable=0;fillColor=none;top=0;left=0;bottom=0;right=0;align=left;spacingLeft=6;overflow=hidden;" vertex="1" parent="nKY9XVkqRSqY-fJyK-zI-51">
          <mxGeometry x="30" width="150" height="30" as="geometry" />
        </mxCell>
        <mxCell id="nKY9XVkqRSqY-fJyK-zI-62" value="" style="edgeStyle=entityRelationEdgeStyle;fontSize=12;html=1;endArrow=ERoneToMany;startArrow=ERoneToMany;exitX=1;exitY=0.25;exitDx=0;exitDy=0;entryX=0;entryY=0;entryDx=0;entryDy=0;" edge="1" parent="1" source="nKY9XVkqRSqY-fJyK-zI-28" target="nKY9XVkqRSqY-fJyK-zI-15">
          <mxGeometry width="100" height="100" relative="1" as="geometry">
            <mxPoint x="740" y="590" as="sourcePoint" />
            <mxPoint x="840" y="490" as="targetPoint" />
          </mxGeometry>
        </mxCell>
        <mxCell id="nKY9XVkqRSqY-fJyK-zI-81" value="" style="endArrow=none;html=1;rounded=0;entryX=0.75;entryY=0;entryDx=0;entryDy=0;dashed=1;" edge="1" parent="1" target="nKY9XVkqRSqY-fJyK-zI-41">
          <mxGeometry relative="1" as="geometry">
            <mxPoint x="1030" y="240" as="sourcePoint" />
            <mxPoint x="870" y="540" as="targetPoint" />
          </mxGeometry>
        </mxCell>
        <mxCell id="nKY9XVkqRSqY-fJyK-zI-98" value="Home" style="shape=note;whiteSpace=wrap;html=1;backgroundOutline=1;darkOpacity=0.05;fontFamily=Helvetica;fontSize=12;fontColor=#000000;align=center;strokeColor=#000000;fillColor=#ffffff;" vertex="1" parent="1">
          <mxGeometry x="10" y="20" width="80" height="80" as="geometry" />
        </mxCell>
        <mxCell id="nKY9XVkqRSqY-fJyK-zI-163" value="SurveyResponses" style="shape=table;startSize=30;container=1;collapsible=1;childLayout=tableLayout;fixedRows=1;rowLines=0;fontStyle=1;align=center;resizeLast=1;" vertex="1" parent="1">
          <mxGeometry x="860" y="547" width="180" height="190" as="geometry" />
        </mxCell>
        <mxCell id="nKY9XVkqRSqY-fJyK-zI-164" value="" style="shape=partialRectangle;collapsible=0;dropTarget=0;pointerEvents=0;fillColor=none;top=0;left=0;bottom=1;right=0;points=[[0,0.5],[1,0.5]];portConstraint=eastwest;" vertex="1" parent="nKY9XVkqRSqY-fJyK-zI-163">
          <mxGeometry y="30" width="180" height="30" as="geometry" />
        </mxCell>
        <mxCell id="nKY9XVkqRSqY-fJyK-zI-165" value="PK" style="shape=partialRectangle;connectable=0;fillColor=none;top=0;left=0;bottom=0;right=0;fontStyle=1;overflow=hidden;" vertex="1" parent="nKY9XVkqRSqY-fJyK-zI-164">
          <mxGeometry width="30" height="30" as="geometry" />
        </mxCell>
        <mxCell id="nKY9XVkqRSqY-fJyK-zI-166" value="ResponseID" style="shape=partialRectangle;connectable=0;fillColor=none;top=0;left=0;bottom=0;right=0;align=left;spacingLeft=6;fontStyle=5;overflow=hidden;" vertex="1" parent="nKY9XVkqRSqY-fJyK-zI-164">
          <mxGeometry x="30" width="150" height="30" as="geometry" />
        </mxCell>
        <mxCell id="nKY9XVkqRSqY-fJyK-zI-167" value="" style="shape=partialRectangle;collapsible=0;dropTarget=0;pointerEvents=0;fillColor=none;top=0;left=0;bottom=0;right=0;points=[[0,0.5],[1,0.5]];portConstraint=eastwest;" vertex="1" parent="nKY9XVkqRSqY-fJyK-zI-163">
          <mxGeometry y="60" width="180" height="30" as="geometry" />
        </mxCell>
        <mxCell id="nKY9XVkqRSqY-fJyK-zI-168" value="FK" style="shape=partialRectangle;connectable=0;fillColor=none;top=0;left=0;bottom=0;right=0;editable=1;overflow=hidden;fontStyle=1" vertex="1" parent="nKY9XVkqRSqY-fJyK-zI-167">
          <mxGeometry width="30" height="30" as="geometry" />
        </mxCell>
        <mxCell id="nKY9XVkqRSqY-fJyK-zI-169" value="SurveyID" style="shape=partialRectangle;connectable=0;fillColor=none;top=0;left=0;bottom=0;right=0;align=left;spacingLeft=6;overflow=hidden;fontStyle=1" vertex="1" parent="nKY9XVkqRSqY-fJyK-zI-167">
          <mxGeometry x="30" width="150" height="30" as="geometry" />
        </mxCell>
        <mxCell id="nKY9XVkqRSqY-fJyK-zI-170" value="" style="shape=partialRectangle;collapsible=0;dropTarget=0;pointerEvents=0;fillColor=none;top=0;left=0;bottom=0;right=0;points=[[0,0.5],[1,0.5]];portConstraint=eastwest;" vertex="1" parent="nKY9XVkqRSqY-fJyK-zI-163">
          <mxGeometry y="90" width="180" height="30" as="geometry" />
        </mxCell>
        <mxCell id="nKY9XVkqRSqY-fJyK-zI-171" value="FK2" style="shape=partialRectangle;connectable=0;fillColor=none;top=0;left=0;bottom=0;right=0;editable=1;overflow=hidden;fontStyle=1" vertex="1" parent="nKY9XVkqRSqY-fJyK-zI-170">
          <mxGeometry width="30" height="30" as="geometry" />
        </mxCell>
        <mxCell id="nKY9XVkqRSqY-fJyK-zI-172" value="InviteID" style="shape=partialRectangle;connectable=0;fillColor=none;top=0;left=0;bottom=0;right=0;align=left;spacingLeft=6;overflow=hidden;fontStyle=1" vertex="1" parent="nKY9XVkqRSqY-fJyK-zI-170">
          <mxGeometry x="30" width="150" height="30" as="geometry" />
        </mxCell>
        <mxCell id="nKY9XVkqRSqY-fJyK-zI-173" value="" style="shape=partialRectangle;collapsible=0;dropTarget=0;pointerEvents=0;fillColor=none;top=0;left=0;bottom=0;right=0;points=[[0,0.5],[1,0.5]];portConstraint=eastwest;" vertex="1" parent="nKY9XVkqRSqY-fJyK-zI-163">
          <mxGeometry y="120" width="180" height="30" as="geometry" />
        </mxCell>
        <mxCell id="nKY9XVkqRSqY-fJyK-zI-174" value="" style="shape=partialRectangle;connectable=0;fillColor=none;top=0;left=0;bottom=0;right=0;editable=1;overflow=hidden;" vertex="1" parent="nKY9XVkqRSqY-fJyK-zI-173">
          <mxGeometry width="30" height="30" as="geometry" />
        </mxCell>
        <mxCell id="nKY9XVkqRSqY-fJyK-zI-175" value="demo2" style="shape=partialRectangle;connectable=0;fillColor=none;top=0;left=0;bottom=0;right=0;align=left;spacingLeft=6;overflow=hidden;" vertex="1" parent="nKY9XVkqRSqY-fJyK-zI-173">
          <mxGeometry x="30" width="150" height="30" as="geometry" />
        </mxCell>
        <mxCell id="nKY9XVkqRSqY-fJyK-zI-176" style="shape=partialRectangle;collapsible=0;dropTarget=0;pointerEvents=0;fillColor=none;top=0;left=0;bottom=0;right=0;points=[[0,0.5],[1,0.5]];portConstraint=eastwest;" vertex="1" parent="nKY9XVkqRSqY-fJyK-zI-163">
          <mxGeometry y="150" width="180" height="30" as="geometry" />
        </mxCell>
        <mxCell id="nKY9XVkqRSqY-fJyK-zI-177" style="shape=partialRectangle;connectable=0;fillColor=none;top=0;left=0;bottom=0;right=0;editable=1;overflow=hidden;" vertex="1" parent="nKY9XVkqRSqY-fJyK-zI-176">
          <mxGeometry width="30" height="30" as="geometry" />
        </mxCell>
        <object label="q1.1" roles="admin, OrgMember, SuborgMember" id="nKY9XVkqRSqY-fJyK-zI-178">
          <mxCell style="shape=partialRectangle;connectable=0;fillColor=none;top=0;left=0;bottom=0;right=0;align=left;spacingLeft=6;overflow=hidden;" vertex="1" parent="nKY9XVkqRSqY-fJyK-zI-176">
            <mxGeometry x="30" width="150" height="30" as="geometry" />
          </mxCell>
        </object>
        <mxCell id="nKY9XVkqRSqY-fJyK-zI-180" value="Questions" style="shape=table;startSize=30;container=1;collapsible=1;childLayout=tableLayout;fixedRows=1;rowLines=0;fontStyle=1;align=center;resizeLast=1;" vertex="1" parent="1">
          <mxGeometry x="1327" y="607" width="180" height="130" as="geometry" />
        </mxCell>
        <mxCell id="nKY9XVkqRSqY-fJyK-zI-181" value="" style="shape=partialRectangle;collapsible=0;dropTarget=0;pointerEvents=0;fillColor=none;top=0;left=0;bottom=1;right=0;points=[[0,0.5],[1,0.5]];portConstraint=eastwest;" vertex="1" parent="nKY9XVkqRSqY-fJyK-zI-180">
          <mxGeometry y="30" width="180" height="30" as="geometry" />
        </mxCell>
        <mxCell id="nKY9XVkqRSqY-fJyK-zI-182" value="PK" style="shape=partialRectangle;connectable=0;fillColor=none;top=0;left=0;bottom=0;right=0;fontStyle=1;overflow=hidden;" vertex="1" parent="nKY9XVkqRSqY-fJyK-zI-181">
          <mxGeometry width="30" height="30" as="geometry" />
        </mxCell>
        <mxCell id="nKY9XVkqRSqY-fJyK-zI-183" value="QuestionID" style="shape=partialRectangle;connectable=0;fillColor=none;top=0;left=0;bottom=0;right=0;align=left;spacingLeft=6;fontStyle=5;overflow=hidden;" vertex="1" parent="nKY9XVkqRSqY-fJyK-zI-181">
          <mxGeometry x="30" width="150" height="30" as="geometry" />
        </mxCell>
        <mxCell id="nKY9XVkqRSqY-fJyK-zI-184" value="" style="shape=partialRectangle;collapsible=0;dropTarget=0;pointerEvents=0;fillColor=none;top=0;left=0;bottom=0;right=0;points=[[0,0.5],[1,0.5]];portConstraint=eastwest;" vertex="1" parent="nKY9XVkqRSqY-fJyK-zI-180">
          <mxGeometry y="60" width="180" height="30" as="geometry" />
        </mxCell>
        <mxCell id="nKY9XVkqRSqY-fJyK-zI-185" value="" style="shape=partialRectangle;connectable=0;fillColor=none;top=0;left=0;bottom=0;right=0;editable=1;overflow=hidden;fontStyle=1" vertex="1" parent="nKY9XVkqRSqY-fJyK-zI-184">
          <mxGeometry width="30" height="30" as="geometry" />
        </mxCell>
        <mxCell id="nKY9XVkqRSqY-fJyK-zI-186" value="QuestionText" style="shape=partialRectangle;connectable=0;fillColor=none;top=0;left=0;bottom=0;right=0;align=left;spacingLeft=6;overflow=hidden;fontStyle=0" vertex="1" parent="nKY9XVkqRSqY-fJyK-zI-184">
          <mxGeometry x="30" width="150" height="30" as="geometry" />
        </mxCell>
        <mxCell id="nKY9XVkqRSqY-fJyK-zI-187" value="" style="shape=partialRectangle;collapsible=0;dropTarget=0;pointerEvents=0;fillColor=none;top=0;left=0;bottom=0;right=0;points=[[0,0.5],[1,0.5]];portConstraint=eastwest;" vertex="1" parent="nKY9XVkqRSqY-fJyK-zI-180">
          <mxGeometry y="90" width="180" height="30" as="geometry" />
        </mxCell>
        <mxCell id="nKY9XVkqRSqY-fJyK-zI-188" value="" style="shape=partialRectangle;connectable=0;fillColor=none;top=0;left=0;bottom=0;right=0;editable=1;overflow=hidden;" vertex="1" parent="nKY9XVkqRSqY-fJyK-zI-187">
          <mxGeometry width="30" height="30" as="geometry" />
        </mxCell>
        <mxCell id="nKY9XVkqRSqY-fJyK-zI-189" value="QuestionType" style="shape=partialRectangle;connectable=0;fillColor=none;top=0;left=0;bottom=0;right=0;align=left;spacingLeft=6;overflow=hidden;" vertex="1" parent="nKY9XVkqRSqY-fJyK-zI-187">
          <mxGeometry x="30" width="150" height="30" as="geometry" />
        </mxCell>
        <object label="SurveyQuestions*" purpose="a survey is made up of selectable or custom questions" id="nKY9XVkqRSqY-fJyK-zI-197">
          <mxCell style="shape=table;startSize=30;container=1;collapsible=1;childLayout=tableLayout;fixedRows=1;rowLines=0;fontStyle=1;align=center;resizeLast=1;" vertex="1" parent="1">
            <mxGeometry x="1095" y="617" width="180" height="130" as="geometry" />
          </mxCell>
        </object>
        <mxCell id="nKY9XVkqRSqY-fJyK-zI-198" value="" style="shape=partialRectangle;collapsible=0;dropTarget=0;pointerEvents=0;fillColor=none;top=0;left=0;bottom=1;right=0;points=[[0,0.5],[1,0.5]];portConstraint=eastwest;" vertex="1" parent="nKY9XVkqRSqY-fJyK-zI-197">
          <mxGeometry y="30" width="180" height="30" as="geometry" />
        </mxCell>
        <mxCell id="nKY9XVkqRSqY-fJyK-zI-199" value="PK" style="shape=partialRectangle;connectable=0;fillColor=none;top=0;left=0;bottom=0;right=0;fontStyle=1;overflow=hidden;" vertex="1" parent="nKY9XVkqRSqY-fJyK-zI-198">
          <mxGeometry width="30" height="30" as="geometry" />
        </mxCell>
        <mxCell id="nKY9XVkqRSqY-fJyK-zI-200" value="SurveyID" style="shape=partialRectangle;connectable=0;fillColor=none;top=0;left=0;bottom=0;right=0;align=left;spacingLeft=6;fontStyle=5;overflow=hidden;" vertex="1" parent="nKY9XVkqRSqY-fJyK-zI-198">
          <mxGeometry x="30" width="150" height="30" as="geometry" />
        </mxCell>
        <mxCell id="nKY9XVkqRSqY-fJyK-zI-201" value="" style="shape=partialRectangle;collapsible=0;dropTarget=0;pointerEvents=0;fillColor=none;top=0;left=0;bottom=0;right=0;points=[[0,0.5],[1,0.5]];portConstraint=eastwest;" vertex="1" parent="nKY9XVkqRSqY-fJyK-zI-197">
          <mxGeometry y="60" width="180" height="30" as="geometry" />
        </mxCell>
        <mxCell id="nKY9XVkqRSqY-fJyK-zI-202" value="FK" style="shape=partialRectangle;connectable=0;fillColor=none;top=0;left=0;bottom=0;right=0;editable=1;overflow=hidden;fontStyle=1" vertex="1" parent="nKY9XVkqRSqY-fJyK-zI-201">
          <mxGeometry width="30" height="30" as="geometry" />
        </mxCell>
        <object label="SuborgID*" ownership="a question can belong to a specific org (&quot;custom question&quot;) or be available to everyone" id="nKY9XVkqRSqY-fJyK-zI-203">
          <mxCell style="shape=partialRectangle;connectable=0;fillColor=none;top=0;left=0;bottom=0;right=0;align=left;spacingLeft=6;overflow=hidden;fontStyle=1" vertex="1" parent="nKY9XVkqRSqY-fJyK-zI-201">
            <mxGeometry x="30" width="150" height="30" as="geometry" />
          </mxCell>
        </object>
        <mxCell id="nKY9XVkqRSqY-fJyK-zI-217" style="shape=partialRectangle;collapsible=0;dropTarget=0;pointerEvents=0;fillColor=none;top=0;left=0;bottom=0;right=0;points=[[0,0.5],[1,0.5]];portConstraint=eastwest;" vertex="1" parent="nKY9XVkqRSqY-fJyK-zI-197">
          <mxGeometry y="90" width="180" height="30" as="geometry" />
        </mxCell>
        <mxCell id="nKY9XVkqRSqY-fJyK-zI-218" value="FK" style="shape=partialRectangle;connectable=0;fillColor=none;top=0;left=0;bottom=0;right=0;editable=1;overflow=hidden;fontStyle=1" vertex="1" parent="nKY9XVkqRSqY-fJyK-zI-217">
          <mxGeometry width="30" height="30" as="geometry" />
        </mxCell>
        <mxCell id="nKY9XVkqRSqY-fJyK-zI-219" value="QuestionID" style="shape=partialRectangle;connectable=0;fillColor=none;top=0;left=0;bottom=0;right=0;align=left;spacingLeft=6;overflow=hidden;fontStyle=1" vertex="1" parent="nKY9XVkqRSqY-fJyK-zI-217">
          <mxGeometry x="30" width="150" height="30" as="geometry" />
        </mxCell>
        <mxCell id="nKY9XVkqRSqY-fJyK-zI-220" value="CourseAssignment" style="shape=table;startSize=30;container=1;collapsible=1;childLayout=tableLayout;fixedRows=1;rowLines=0;fontStyle=1;align=center;resizeLast=1;" vertex="1" parent="1">
          <mxGeometry x="857" y="800" width="180" height="190" as="geometry" />
        </mxCell>
        <mxCell id="nKY9XVkqRSqY-fJyK-zI-221" value="" style="shape=partialRectangle;collapsible=0;dropTarget=0;pointerEvents=0;fillColor=none;top=0;left=0;bottom=1;right=0;points=[[0,0.5],[1,0.5]];portConstraint=eastwest;" vertex="1" parent="nKY9XVkqRSqY-fJyK-zI-220">
          <mxGeometry y="30" width="180" height="30" as="geometry" />
        </mxCell>
        <mxCell id="nKY9XVkqRSqY-fJyK-zI-222" value="PK" style="shape=partialRectangle;connectable=0;fillColor=none;top=0;left=0;bottom=0;right=0;fontStyle=1;overflow=hidden;" vertex="1" parent="nKY9XVkqRSqY-fJyK-zI-221">
          <mxGeometry width="30" height="30" as="geometry" />
        </mxCell>
        <mxCell id="nKY9XVkqRSqY-fJyK-zI-223" value="AssignID" style="shape=partialRectangle;connectable=0;fillColor=none;top=0;left=0;bottom=0;right=0;align=left;spacingLeft=6;fontStyle=5;overflow=hidden;" vertex="1" parent="nKY9XVkqRSqY-fJyK-zI-221">
          <mxGeometry x="30" width="150" height="30" as="geometry" />
        </mxCell>
        <mxCell id="nKY9XVkqRSqY-fJyK-zI-224" value="" style="shape=partialRectangle;collapsible=0;dropTarget=0;pointerEvents=0;fillColor=none;top=0;left=0;bottom=0;right=0;points=[[0,0.5],[1,0.5]];portConstraint=eastwest;" vertex="1" parent="nKY9XVkqRSqY-fJyK-zI-220">
          <mxGeometry y="60" width="180" height="30" as="geometry" />
        </mxCell>
        <mxCell id="nKY9XVkqRSqY-fJyK-zI-225" value="FK" style="shape=partialRectangle;connectable=0;fillColor=none;top=0;left=0;bottom=0;right=0;editable=1;overflow=hidden;fontStyle=1" vertex="1" parent="nKY9XVkqRSqY-fJyK-zI-224">
          <mxGeometry width="30" height="30" as="geometry" />
        </mxCell>
        <mxCell id="nKY9XVkqRSqY-fJyK-zI-226" value="CourseID" style="shape=partialRectangle;connectable=0;fillColor=none;top=0;left=0;bottom=0;right=0;align=left;spacingLeft=6;overflow=hidden;fontStyle=1" vertex="1" parent="nKY9XVkqRSqY-fJyK-zI-224">
          <mxGeometry x="30" width="150" height="30" as="geometry" />
        </mxCell>
        <mxCell id="nKY9XVkqRSqY-fJyK-zI-227" value="" style="shape=partialRectangle;collapsible=0;dropTarget=0;pointerEvents=0;fillColor=none;top=0;left=0;bottom=0;right=0;points=[[0,0.5],[1,0.5]];portConstraint=eastwest;" vertex="1" parent="nKY9XVkqRSqY-fJyK-zI-220">
          <mxGeometry y="90" width="180" height="30" as="geometry" />
        </mxCell>
        <mxCell id="nKY9XVkqRSqY-fJyK-zI-228" value="FK" style="shape=partialRectangle;connectable=0;fillColor=none;top=0;left=0;bottom=0;right=0;editable=1;overflow=hidden;" vertex="1" parent="nKY9XVkqRSqY-fJyK-zI-227">
          <mxGeometry width="30" height="30" as="geometry" />
        </mxCell>
        <mxCell id="nKY9XVkqRSqY-fJyK-zI-229" value="UserID" style="shape=partialRectangle;connectable=0;fillColor=none;top=0;left=0;bottom=0;right=0;align=left;spacingLeft=6;overflow=hidden;" vertex="1" parent="nKY9XVkqRSqY-fJyK-zI-227">
          <mxGeometry x="30" width="150" height="30" as="geometry" />
        </mxCell>
        <mxCell id="nKY9XVkqRSqY-fJyK-zI-230" value="" style="shape=partialRectangle;collapsible=0;dropTarget=0;pointerEvents=0;fillColor=none;top=0;left=0;bottom=0;right=0;points=[[0,0.5],[1,0.5]];portConstraint=eastwest;" vertex="1" parent="nKY9XVkqRSqY-fJyK-zI-220">
          <mxGeometry y="120" width="180" height="30" as="geometry" />
        </mxCell>
        <mxCell id="nKY9XVkqRSqY-fJyK-zI-231" value="FK3" style="shape=partialRectangle;connectable=0;fillColor=none;top=0;left=0;bottom=0;right=0;editable=1;overflow=hidden;" vertex="1" parent="nKY9XVkqRSqY-fJyK-zI-230">
          <mxGeometry width="30" height="30" as="geometry" />
        </mxCell>
        <mxCell id="nKY9XVkqRSqY-fJyK-zI-232" value="demo2" style="shape=partialRectangle;connectable=0;fillColor=none;top=0;left=0;bottom=0;right=0;align=left;spacingLeft=6;overflow=hidden;" vertex="1" parent="nKY9XVkqRSqY-fJyK-zI-230">
          <mxGeometry x="30" width="150" height="30" as="geometry" />
        </mxCell>
        <mxCell id="nKY9XVkqRSqY-fJyK-zI-233" style="shape=partialRectangle;collapsible=0;dropTarget=0;pointerEvents=0;fillColor=none;top=0;left=0;bottom=0;right=0;points=[[0,0.5],[1,0.5]];portConstraint=eastwest;" vertex="1" parent="nKY9XVkqRSqY-fJyK-zI-220">
          <mxGeometry y="150" width="180" height="30" as="geometry" />
        </mxCell>
        <mxCell id="nKY9XVkqRSqY-fJyK-zI-234" style="shape=partialRectangle;connectable=0;fillColor=none;top=0;left=0;bottom=0;right=0;editable=1;overflow=hidden;" vertex="1" parent="nKY9XVkqRSqY-fJyK-zI-233">
          <mxGeometry width="30" height="30" as="geometry" />
        </mxCell>
        <object label="q1.1" roles="admin, OrgMember, SuborgMember" id="nKY9XVkqRSqY-fJyK-zI-235">
          <mxCell style="shape=partialRectangle;connectable=0;fillColor=none;top=0;left=0;bottom=0;right=0;align=left;spacingLeft=6;overflow=hidden;" vertex="1" parent="nKY9XVkqRSqY-fJyK-zI-233">
            <mxGeometry x="30" width="150" height="30" as="geometry" />
          </mxCell>
        </object>
        <mxCell id="nKY9XVkqRSqY-fJyK-zI-236" value="LearningTracks" style="shape=table;startSize=30;container=1;collapsible=1;childLayout=tableLayout;fixedRows=1;rowLines=0;fontStyle=1;align=center;resizeLast=1;" vertex="1" parent="1">
          <mxGeometry x="1327" y="810" width="180" height="130" as="geometry" />
        </mxCell>
        <mxCell id="nKY9XVkqRSqY-fJyK-zI-237" value="" style="shape=partialRectangle;collapsible=0;dropTarget=0;pointerEvents=0;fillColor=none;top=0;left=0;bottom=1;right=0;points=[[0,0.5],[1,0.5]];portConstraint=eastwest;" vertex="1" parent="nKY9XVkqRSqY-fJyK-zI-236">
          <mxGeometry y="30" width="180" height="30" as="geometry" />
        </mxCell>
        <mxCell id="nKY9XVkqRSqY-fJyK-zI-238" value="PK" style="shape=partialRectangle;connectable=0;fillColor=none;top=0;left=0;bottom=0;right=0;fontStyle=1;overflow=hidden;" vertex="1" parent="nKY9XVkqRSqY-fJyK-zI-237">
          <mxGeometry width="30" height="30" as="geometry" />
        </mxCell>
        <mxCell id="nKY9XVkqRSqY-fJyK-zI-239" value="TrackID" style="shape=partialRectangle;connectable=0;fillColor=none;top=0;left=0;bottom=0;right=0;align=left;spacingLeft=6;fontStyle=5;overflow=hidden;" vertex="1" parent="nKY9XVkqRSqY-fJyK-zI-237">
          <mxGeometry x="30" width="150" height="30" as="geometry" />
        </mxCell>
        <mxCell id="nKY9XVkqRSqY-fJyK-zI-240" value="" style="shape=partialRectangle;collapsible=0;dropTarget=0;pointerEvents=0;fillColor=none;top=0;left=0;bottom=0;right=0;points=[[0,0.5],[1,0.5]];portConstraint=eastwest;" vertex="1" parent="nKY9XVkqRSqY-fJyK-zI-236">
          <mxGeometry y="60" width="180" height="30" as="geometry" />
        </mxCell>
        <mxCell id="nKY9XVkqRSqY-fJyK-zI-241" value="" style="shape=partialRectangle;connectable=0;fillColor=none;top=0;left=0;bottom=0;right=0;editable=1;overflow=hidden;fontStyle=1" vertex="1" parent="nKY9XVkqRSqY-fJyK-zI-240">
          <mxGeometry width="30" height="30" as="geometry" />
        </mxCell>
        <mxCell id="nKY9XVkqRSqY-fJyK-zI-242" value="QuestionText" style="shape=partialRectangle;connectable=0;fillColor=none;top=0;left=0;bottom=0;right=0;align=left;spacingLeft=6;overflow=hidden;fontStyle=0" vertex="1" parent="nKY9XVkqRSqY-fJyK-zI-240">
          <mxGeometry x="30" width="150" height="30" as="geometry" />
        </mxCell>
        <mxCell id="nKY9XVkqRSqY-fJyK-zI-243" value="" style="shape=partialRectangle;collapsible=0;dropTarget=0;pointerEvents=0;fillColor=none;top=0;left=0;bottom=0;right=0;points=[[0,0.5],[1,0.5]];portConstraint=eastwest;" vertex="1" parent="nKY9XVkqRSqY-fJyK-zI-236">
          <mxGeometry y="90" width="180" height="30" as="geometry" />
        </mxCell>
        <mxCell id="nKY9XVkqRSqY-fJyK-zI-244" value="" style="shape=partialRectangle;connectable=0;fillColor=none;top=0;left=0;bottom=0;right=0;editable=1;overflow=hidden;" vertex="1" parent="nKY9XVkqRSqY-fJyK-zI-243">
          <mxGeometry width="30" height="30" as="geometry" />
        </mxCell>
        <mxCell id="nKY9XVkqRSqY-fJyK-zI-245" value="QuestionType" style="shape=partialRectangle;connectable=0;fillColor=none;top=0;left=0;bottom=0;right=0;align=left;spacingLeft=6;overflow=hidden;" vertex="1" parent="nKY9XVkqRSqY-fJyK-zI-243">
          <mxGeometry x="30" width="150" height="30" as="geometry" />
        </mxCell>
        <mxCell id="nKY9XVkqRSqY-fJyK-zI-246" value="Courses" style="shape=table;startSize=30;container=1;collapsible=1;childLayout=tableLayout;fixedRows=1;rowLines=0;fontStyle=1;align=center;resizeLast=1;" vertex="1" parent="1">
          <mxGeometry x="1092" y="870" width="180" height="130" as="geometry" />
        </mxCell>
        <mxCell id="nKY9XVkqRSqY-fJyK-zI-247" value="" style="shape=partialRectangle;collapsible=0;dropTarget=0;pointerEvents=0;fillColor=none;top=0;left=0;bottom=1;right=0;points=[[0,0.5],[1,0.5]];portConstraint=eastwest;" vertex="1" parent="nKY9XVkqRSqY-fJyK-zI-246">
          <mxGeometry y="30" width="180" height="30" as="geometry" />
        </mxCell>
        <mxCell id="nKY9XVkqRSqY-fJyK-zI-248" value="PK" style="shape=partialRectangle;connectable=0;fillColor=none;top=0;left=0;bottom=0;right=0;fontStyle=1;overflow=hidden;" vertex="1" parent="nKY9XVkqRSqY-fJyK-zI-247">
          <mxGeometry width="30" height="30" as="geometry" />
        </mxCell>
        <mxCell id="nKY9XVkqRSqY-fJyK-zI-249" value="CourseID" style="shape=partialRectangle;connectable=0;fillColor=none;top=0;left=0;bottom=0;right=0;align=left;spacingLeft=6;fontStyle=5;overflow=hidden;" vertex="1" parent="nKY9XVkqRSqY-fJyK-zI-247">
          <mxGeometry x="30" width="150" height="30" as="geometry" />
        </mxCell>
        <mxCell id="nKY9XVkqRSqY-fJyK-zI-250" value="" style="shape=partialRectangle;collapsible=0;dropTarget=0;pointerEvents=0;fillColor=none;top=0;left=0;bottom=0;right=0;points=[[0,0.5],[1,0.5]];portConstraint=eastwest;" vertex="1" parent="nKY9XVkqRSqY-fJyK-zI-246">
          <mxGeometry y="60" width="180" height="30" as="geometry" />
        </mxCell>
        <mxCell id="nKY9XVkqRSqY-fJyK-zI-251" value="FK" style="shape=partialRectangle;connectable=0;fillColor=none;top=0;left=0;bottom=0;right=0;editable=1;overflow=hidden;fontStyle=1" vertex="1" parent="nKY9XVkqRSqY-fJyK-zI-250">
          <mxGeometry width="30" height="30" as="geometry" />
        </mxCell>
        <mxCell id="nKY9XVkqRSqY-fJyK-zI-252" value="SuborgID" style="shape=partialRectangle;connectable=0;fillColor=none;top=0;left=0;bottom=0;right=0;align=left;spacingLeft=6;overflow=hidden;fontStyle=1" vertex="1" parent="nKY9XVkqRSqY-fJyK-zI-250">
          <mxGeometry x="30" width="150" height="30" as="geometry" />
        </mxCell>
        <mxCell id="nKY9XVkqRSqY-fJyK-zI-253" style="shape=partialRectangle;collapsible=0;dropTarget=0;pointerEvents=0;fillColor=none;top=0;left=0;bottom=0;right=0;points=[[0,0.5],[1,0.5]];portConstraint=eastwest;" vertex="1" parent="nKY9XVkqRSqY-fJyK-zI-246">
          <mxGeometry y="90" width="180" height="30" as="geometry" />
        </mxCell>
        <mxCell id="nKY9XVkqRSqY-fJyK-zI-254" value="FK" style="shape=partialRectangle;connectable=0;fillColor=none;top=0;left=0;bottom=0;right=0;editable=1;overflow=hidden;fontStyle=1" vertex="1" parent="nKY9XVkqRSqY-fJyK-zI-253">
          <mxGeometry width="30" height="30" as="geometry" />
        </mxCell>
        <mxCell id="nKY9XVkqRSqY-fJyK-zI-255" value="QuestionID" style="shape=partialRectangle;connectable=0;fillColor=none;top=0;left=0;bottom=0;right=0;align=left;spacingLeft=6;overflow=hidden;fontStyle=1" vertex="1" parent="nKY9XVkqRSqY-fJyK-zI-253">
          <mxGeometry x="30" width="150" height="30" as="geometry" />
        </mxCell>
        <mxCell id="nKY9XVkqRSqY-fJyK-zI-260" value="SurveyInvite" style="shape=table;startSize=30;container=1;collapsible=1;childLayout=tableLayout;fixedRows=1;rowLines=0;fontStyle=1;align=center;resizeLast=1;" vertex="1" parent="1">
          <mxGeometry x="1327" y="470" width="180" height="130" as="geometry" />
        </mxCell>
        <mxCell id="nKY9XVkqRSqY-fJyK-zI-261" value="" style="shape=partialRectangle;collapsible=0;dropTarget=0;pointerEvents=0;fillColor=none;top=0;left=0;bottom=1;right=0;points=[[0,0.5],[1,0.5]];portConstraint=eastwest;" vertex="1" parent="nKY9XVkqRSqY-fJyK-zI-260">
          <mxGeometry y="30" width="180" height="30" as="geometry" />
        </mxCell>
        <mxCell id="nKY9XVkqRSqY-fJyK-zI-262" value="PK" style="shape=partialRectangle;connectable=0;fillColor=none;top=0;left=0;bottom=0;right=0;fontStyle=1;overflow=hidden;" vertex="1" parent="nKY9XVkqRSqY-fJyK-zI-261">
          <mxGeometry width="30" height="30" as="geometry" />
        </mxCell>
        <mxCell id="nKY9XVkqRSqY-fJyK-zI-263" value="InviteID" style="shape=partialRectangle;connectable=0;fillColor=none;top=0;left=0;bottom=0;right=0;align=left;spacingLeft=6;fontStyle=5;overflow=hidden;" vertex="1" parent="nKY9XVkqRSqY-fJyK-zI-261">
          <mxGeometry x="30" width="150" height="30" as="geometry" />
        </mxCell>
        <mxCell id="nKY9XVkqRSqY-fJyK-zI-264" value="" style="shape=partialRectangle;collapsible=0;dropTarget=0;pointerEvents=0;fillColor=none;top=0;left=0;bottom=0;right=0;points=[[0,0.5],[1,0.5]];portConstraint=eastwest;" vertex="1" parent="nKY9XVkqRSqY-fJyK-zI-260">
          <mxGeometry y="60" width="180" height="30" as="geometry" />
        </mxCell>
        <mxCell id="nKY9XVkqRSqY-fJyK-zI-265" value="" style="shape=partialRectangle;connectable=0;fillColor=none;top=0;left=0;bottom=0;right=0;editable=1;overflow=hidden;fontStyle=1" vertex="1" parent="nKY9XVkqRSqY-fJyK-zI-264">
          <mxGeometry width="30" height="30" as="geometry" />
        </mxCell>
        <mxCell id="nKY9XVkqRSqY-fJyK-zI-266" value="InviteeEmail" style="shape=partialRectangle;connectable=0;fillColor=none;top=0;left=0;bottom=0;right=0;align=left;spacingLeft=6;overflow=hidden;fontStyle=0" vertex="1" parent="nKY9XVkqRSqY-fJyK-zI-264">
          <mxGeometry x="30" width="150" height="30" as="geometry" />
        </mxCell>
        <mxCell id="nKY9XVkqRSqY-fJyK-zI-267" value="" style="shape=partialRectangle;collapsible=0;dropTarget=0;pointerEvents=0;fillColor=none;top=0;left=0;bottom=0;right=0;points=[[0,0.5],[1,0.5]];portConstraint=eastwest;" vertex="1" parent="nKY9XVkqRSqY-fJyK-zI-260">
          <mxGeometry y="90" width="180" height="30" as="geometry" />
        </mxCell>
        <mxCell id="nKY9XVkqRSqY-fJyK-zI-268" value="" style="shape=partialRectangle;connectable=0;fillColor=none;top=0;left=0;bottom=0;right=0;editable=1;overflow=hidden;" vertex="1" parent="nKY9XVkqRSqY-fJyK-zI-267">
          <mxGeometry width="30" height="30" as="geometry" />
        </mxCell>
        <mxCell id="nKY9XVkqRSqY-fJyK-zI-269" value="QuestionType" style="shape=partialRectangle;connectable=0;fillColor=none;top=0;left=0;bottom=0;right=0;align=left;spacingLeft=6;overflow=hidden;" vertex="1" parent="nKY9XVkqRSqY-fJyK-zI-267">
          <mxGeometry x="30" width="150" height="30" as="geometry" />
        </mxCell>
        <mxCell id="nKY9XVkqRSqY-fJyK-zI-270" value="Survey Results" style="swimlane;html=1;startSize=20;horizontal=1;containerType=tree;" vertex="1" parent="1">
          <mxGeometry x="80" y="650" width="340" height="150" as="geometry">
            <mxRectangle x="80" y="360" width="130" height="20" as="alternateBounds" />
          </mxGeometry>
        </mxCell>
        <mxCell id="nKY9XVkqRSqY-fJyK-zI-271" value="" style="edgeStyle=elbowEdgeStyle;elbow=vertical;startArrow=none;endArrow=none;rounded=0;entryX=0.5;entryY=0;entryDx=0;entryDy=0;entryPerimeter=0;exitX=0;exitY=0.5;exitDx=0;exitDy=0;exitPerimeter=0;" edge="1" parent="nKY9XVkqRSqY-fJyK-zI-270" source="nKY9XVkqRSqY-fJyK-zI-272" target="nKY9XVkqRSqY-fJyK-zI-273">
          <mxGeometry relative="1" as="geometry">
            <Array as="points">
              <mxPoint x="100" y="70" />
            </Array>
          </mxGeometry>
        </mxCell>
        <object label="Survey Result Overview*" activities="view demographics, high level results" id="nKY9XVkqRSqY-fJyK-zI-272">
          <mxCell style="shape=note;whiteSpace=wrap;html=1;backgroundOutline=1;darkOpacity=0.05;fontFamily=Helvetica;fontSize=12;fontColor=#000000;align=center;strokeColor=#000000;fillColor=#ffffff;" vertex="1" parent="nKY9XVkqRSqY-fJyK-zI-270">
            <mxGeometry x="10" y="40" width="80" height="80" as="geometry" />
          </mxCell>
        </object>
        <mxCell id="nKY9XVkqRSqY-fJyK-zI-273" value="Section Results" style="shape=note;whiteSpace=wrap;html=1;backgroundOutline=1;darkOpacity=0.05;fontFamily=Helvetica;fontSize=12;fontColor=#000000;align=center;strokeColor=#000000;fillColor=#ffffff;" vertex="1" parent="nKY9XVkqRSqY-fJyK-zI-270">
          <mxGeometry x="120" y="40" width="80" height="80" as="geometry" />
        </mxCell>
        <mxCell id="nKY9XVkqRSqY-fJyK-zI-274" value="" style="edgeStyle=elbowEdgeStyle;elbow=vertical;startArrow=none;endArrow=none;rounded=0;entryX=0.5;entryY=0;entryDx=0;entryDy=0;entryPerimeter=0;exitX=0;exitY=0;exitDx=80;exitDy=55;exitPerimeter=0;" edge="1" parent="nKY9XVkqRSqY-fJyK-zI-270" target="nKY9XVkqRSqY-fJyK-zI-275" source="nKY9XVkqRSqY-fJyK-zI-273">
          <mxGeometry relative="1" as="geometry">
            <mxPoint x="350" y="30" as="sourcePoint" />
            <Array as="points" />
          </mxGeometry>
        </mxCell>
        <mxCell id="nKY9XVkqRSqY-fJyK-zI-275" value="Question Detail" style="shape=note;whiteSpace=wrap;html=1;backgroundOutline=1;darkOpacity=0.05;fontFamily=Helvetica;fontSize=12;fontColor=#000000;align=center;strokeColor=#000000;fillColor=#ffffff;" vertex="1" parent="nKY9XVkqRSqY-fJyK-zI-270">
          <mxGeometry x="230" y="40" width="80" height="80" as="geometry" />
        </mxCell>
        <mxCell id="nKY9XVkqRSqY-fJyK-zI-277" value="" style="shape=cylinder3;whiteSpace=wrap;html=1;boundedLbl=1;backgroundOutline=1;size=18;" vertex="1" parent="1">
          <mxGeometry x="20" y="130" width="50" height="70" as="geometry" />
        </mxCell>
        <mxCell id="nKY9XVkqRSqY-fJyK-zI-285" value="Orgs" style="shape=table;startSize=30;container=1;collapsible=1;childLayout=tableLayout;fixedRows=1;rowLines=0;fontStyle=1;align=center;resizeLast=1;" vertex="1" collapsed="1" parent="1">
          <mxGeometry x="360" y="210" width="60" height="30" as="geometry">
            <mxRectangle x="360" y="210" width="80" height="100" as="alternateBounds" />
          </mxGeometry>
        </mxCell>
        <mxCell id="nKY9XVkqRSqY-fJyK-zI-286" value="" style="shape=partialRectangle;collapsible=0;dropTarget=0;pointerEvents=0;fillColor=none;top=0;left=0;bottom=1;right=0;points=[[0,0.5],[1,0.5]];portConstraint=eastwest;" vertex="1" parent="nKY9XVkqRSqY-fJyK-zI-285">
          <mxGeometry y="30" width="80" height="30" as="geometry" />
        </mxCell>
        <mxCell id="nKY9XVkqRSqY-fJyK-zI-287" value="PK" style="shape=partialRectangle;connectable=0;fillColor=none;top=0;left=0;bottom=0;right=0;fontStyle=1;overflow=hidden;" vertex="1" parent="nKY9XVkqRSqY-fJyK-zI-286">
          <mxGeometry width="30" height="30" as="geometry" />
        </mxCell>
        <mxCell id="nKY9XVkqRSqY-fJyK-zI-288" value="OrgID" style="shape=partialRectangle;connectable=0;fillColor=none;top=0;left=0;bottom=0;right=0;align=left;spacingLeft=6;fontStyle=5;overflow=hidden;" vertex="1" parent="nKY9XVkqRSqY-fJyK-zI-286">
          <mxGeometry x="30" width="50" height="30" as="geometry" />
        </mxCell>
        <mxCell id="nKY9XVkqRSqY-fJyK-zI-289" value="" style="shape=partialRectangle;collapsible=0;dropTarget=0;pointerEvents=0;fillColor=none;top=0;left=0;bottom=0;right=0;points=[[0,0.5],[1,0.5]];portConstraint=eastwest;" vertex="1" parent="nKY9XVkqRSqY-fJyK-zI-285">
          <mxGeometry y="60" width="80" height="30" as="geometry" />
        </mxCell>
        <mxCell id="nKY9XVkqRSqY-fJyK-zI-290" value="" style="shape=partialRectangle;connectable=0;fillColor=none;top=0;left=0;bottom=0;right=0;editable=1;overflow=hidden;" vertex="1" parent="nKY9XVkqRSqY-fJyK-zI-289">
          <mxGeometry width="30" height="30" as="geometry" />
        </mxCell>
        <mxCell id="nKY9XVkqRSqY-fJyK-zI-291" value="OrgName" style="shape=partialRectangle;connectable=0;fillColor=none;top=0;left=0;bottom=0;right=0;align=left;spacingLeft=6;overflow=hidden;" vertex="1" parent="nKY9XVkqRSqY-fJyK-zI-289">
          <mxGeometry x="30" width="50" height="30" as="geometry" />
        </mxCell>
      </root>
    </mxGraphModel>
  </diagram>
</mxfile>
